<svg width="46" height="44" viewBox="0 0 46 44" fill="none" xmlns="http://www.w3.org/2000/svg">
<path d="M38.5318 6.46335C34.8333 2.84742 29.9518 0.598185 24.729 0.103424C19.5062 -0.391336 14.2694 0.899382 9.92129 3.75306C5.5732 6.60673 2.38638 10.8445 0.910227 15.7359C-0.565923 20.6272 -0.238892 25.8655 1.83494 30.5477C2.05109 30.9829 2.12201 31.4728 2.03781 31.949L0.0541976 41.2105C-0.0222252 41.5656 -0.0066195 41.9336 0.0996124 42.2813C0.205844 42.6291 0.399373 42.9458 0.662806 43.2029C0.878759 43.4112 1.13588 43.5748 1.41868 43.6839C1.70148 43.793 2.0041 43.8454 2.3083 43.8379H2.75912L12.4067 41.9549C12.897 41.8977 13.3943 41.9656 13.8493 42.152C18.6697 44.1664 24.0626 44.484 29.0983 43.0502C34.134 41.6164 38.4969 38.5209 41.4348 34.2975C44.3727 30.074 45.7015 24.9873 45.1921 19.9142C44.6828 14.8411 42.3671 10.0996 38.6445 6.50714L38.5318 6.46335ZM13.5788 24.1325C13.133 24.1325 12.6972 24.0041 12.3265 23.7635C11.9558 23.5229 11.6669 23.181 11.4963 22.7809C11.3257 22.3808 11.2811 21.9406 11.368 21.5159C11.455 21.0912 11.6697 20.701 11.9849 20.3948C12.3002 20.0886 12.7018 19.8801 13.1391 19.7956C13.5763 19.7111 14.0296 19.7545 14.4414 19.9202C14.8533 20.0859 15.2054 20.3666 15.4531 20.7266C15.7007 21.0867 15.8329 21.51 15.8329 21.943C15.8329 22.5237 15.5955 23.0806 15.1727 23.4912C14.75 23.9018 14.1767 24.1325 13.5788 24.1325ZM22.5953 24.1325C22.1494 24.1325 21.7136 24.0041 21.3429 23.7635C20.9723 23.5229 20.6833 23.181 20.5127 22.7809C20.3421 22.3808 20.2975 21.9406 20.3845 21.5159C20.4714 21.0912 20.6861 20.701 21.0014 20.3948C21.3166 20.0886 21.7183 19.8801 22.1555 19.7956C22.5928 19.7111 23.046 19.7545 23.4579 19.9202C23.8698 20.0859 24.2218 20.3666 24.4695 20.7266C24.7172 21.0867 24.8494 21.51 24.8494 21.943C24.8494 22.5237 24.6119 23.0806 24.1892 23.4912C23.7664 23.9018 23.1931 24.1325 22.5953 24.1325ZM31.6117 24.1325C31.1659 24.1325 30.7301 24.0041 30.3594 23.7635C29.9887 23.5229 29.6998 23.181 29.5292 22.7809C29.3586 22.3808 29.3139 21.9406 29.4009 21.5159C29.4879 21.0912 29.7025 20.701 30.0178 20.3948C30.333 20.0886 30.7347 19.8801 31.1719 19.7956C31.6092 19.7111 32.0624 19.7545 32.4743 19.9202C32.8862 20.0859 33.2382 20.3666 33.4859 20.7266C33.7336 21.0867 33.8658 21.51 33.8658 21.943C33.8658 22.5237 33.6283 23.0806 33.2056 23.4912C32.7829 23.9018 32.2095 24.1325 31.6117 24.1325Z" fill="white"/>
</svg>
