<svg width="53" height="53" viewBox="0 0 53 53" fill="none" xmlns="http://www.w3.org/2000/svg">
<path d="M30.5192 48.5834H22.4808C21.9772 48.5835 21.4886 48.4114 21.0962 48.0957C20.7038 47.78 20.4311 47.3397 20.3233 46.8477L19.4245 42.6872C18.2255 42.1618 17.0886 41.5048 16.0347 40.7284L11.978 42.0203C11.4978 42.1734 10.9797 42.1576 10.5097 41.9757C10.0397 41.7937 9.64612 41.4564 9.39426 41.0199L5.36626 34.0614C5.11704 33.6245 5.02349 33.1159 5.10091 32.6188C5.17833 32.1218 5.42215 31.6657 5.79247 31.3253L8.93934 28.4545C8.79624 27.154 8.79624 25.8418 8.93934 24.5413L5.79247 21.6771C5.42163 21.3365 5.17748 20.88 5.10004 20.3825C5.02261 19.885 5.11647 19.3759 5.36626 18.9387L9.38543 11.9759C9.63729 11.5393 10.0309 11.2021 10.5009 11.0201C10.9709 10.8381 11.489 10.8224 11.9692 10.9755L16.0259 12.2674C16.5647 11.8699 17.1256 11.4989 17.7042 11.1632C18.2629 10.8496 18.8371 10.5647 19.4245 10.3108L20.3255 6.15471C20.4328 5.66268 20.705 5.2221 21.097 4.906C21.489 4.5899 21.9773 4.41728 22.4808 4.41675H30.5192C31.0228 4.41728 31.511 4.5899 31.903 4.906C32.295 5.2221 32.5672 5.66268 32.6745 6.15471L33.5843 10.313C34.7826 10.8384 35.9188 11.4953 36.9719 12.2718L41.0308 10.9799C41.5107 10.8274 42.0283 10.8434 42.4978 11.0253C42.9674 11.2073 43.3606 11.5442 43.6124 11.9803L47.6315 18.9432C48.1439 19.842 47.9672 20.9792 47.2053 21.6793L44.0585 24.5501C44.2016 25.8506 44.2016 27.1628 44.0585 28.4633L47.2053 31.3341C47.9672 32.0364 48.1439 33.1715 47.6315 34.0703L43.6124 41.0331C43.3605 41.4697 42.9669 41.8069 42.4969 41.9889C42.0269 42.1709 41.5088 42.1866 41.0286 42.0335L36.9719 40.7416C35.9188 41.5175 34.7827 42.1738 33.5843 42.6982L32.6745 46.8477C32.5668 47.3393 32.2944 47.7794 31.9024 48.095C31.5105 48.4107 31.0224 48.583 30.5192 48.5834ZM16.8275 35.8391L18.6383 37.1641C19.0469 37.4645 19.4709 37.7405 19.9125 37.9923C20.3277 38.233 20.7517 38.4494 21.1912 38.6459L23.2516 39.5491L24.2608 44.1668H28.7437L29.7529 39.5469L31.8133 38.6437C32.7121 38.2462 33.5667 37.7537 34.3595 37.173L36.1703 35.848L40.6797 37.2834L42.9212 33.4011L39.4254 30.2145L39.6727 27.9797C39.7831 27.0014 39.7831 26.0142 39.6727 25.0382L39.4254 22.8033L42.9234 19.6101L40.6797 15.7256L36.1725 17.161L34.3595 15.836C33.5662 15.2524 32.7126 14.7556 31.8133 14.3542L29.7529 13.451L28.7437 8.83342H24.2608L23.2449 13.4532L21.1912 14.3542C20.2906 14.7487 19.4366 15.242 18.645 15.825L16.8319 17.15L12.3269 15.7146L10.0811 19.6101L13.5768 22.7923L13.3295 25.0293C13.2191 26.0076 13.2191 26.9948 13.3295 27.9708L13.5768 30.2057L10.0811 33.3923L12.3225 37.2745L16.8275 35.8391ZM26.4912 35.3334C24.1484 35.3334 21.9016 34.4028 20.2451 32.7462C18.5885 31.0896 17.6578 28.8428 17.6578 26.5001C17.6578 24.1573 18.5885 21.9105 20.2451 20.254C21.9016 18.5974 24.1484 17.6667 26.4912 17.6667C28.8339 17.6667 31.0807 18.5974 32.7373 20.254C34.3939 21.9105 35.3245 24.1573 35.3245 26.5001C35.3245 28.8428 34.3939 31.0896 32.7373 32.7462C31.0807 34.4028 28.8339 35.3334 26.4912 35.3334ZM26.4912 22.0834C25.6263 22.0843 24.7807 22.3391 24.0593 22.8162C23.3379 23.2933 22.7725 23.9716 22.4331 24.7672C22.0938 25.5627 21.9955 26.4403 22.1504 27.2912C22.3053 28.1421 22.7067 28.9288 23.3046 29.5537C23.9026 30.1785 24.6709 30.6141 25.5141 30.8063C26.3574 30.9985 27.2385 30.9389 28.0482 30.6349C28.8579 30.3309 29.5605 29.7958 30.0688 29.0961C30.5772 28.3964 30.8689 27.5628 30.9078 26.6988V27.5822V26.5001C30.9078 25.3287 30.4425 24.2053 29.6142 23.377C28.7859 22.5487 27.6625 22.0834 26.4912 22.0834Z" fill="white"/>
</svg>
